HIERARCHY
ROOT Hips
{
	OFFSET 0.000000 0.000000 0.000000 
	CHANNELS 6 Xposition Yposition Zposition Zrotation Xrotation Yrotation
	JOINT Spine
	{
		OFFSET -0.000000 8.280624 0.000000 
		CHANNELS 3 Zrotation Xrotation Yrotation
		JOINT Spine1
		{
			OFFSET -0.000000 24.860672 0.000000 
			CHANNELS 3 Zrotation Xrotation Yrotation
			JOINT Neck
			{
				OFFSET -0.000000 24.758574 2.250779 
				CHANNELS 3 Zrotation Xrotation Yrotation
				JOINT Head
				{
					OFFSET -0.000000 14.137651 -2.019665 
					CHANNELS 3 Zrotation Xrotation Yrotation
					End Site
					{
						OFFSET -0.000000 25.245806 0.000000 
					}
				}
			}
			JOINT LeftShoulder
			{
				OFFSET 4.021533 22.370487 -0.301823 
				CHANNELS 3 Zrotation Xrotation Yrotation
				JOINT LeftArm
				{
					OFFSET 12.928750 0.000000 0.000000 
					CHANNELS 3 Zrotation Xrotation Yrotation
					JOINT LeftForeArm
					{
						OFFSET 29.110218 0.000000 0.000000 
						CHANNELS 3 Zrotation Xrotation Yrotation
						JOINT LeftHand
						{
							OFFSET 26.112843 0.000000 0.000000 
							CHANNELS 3 Zrotation Xrotation Yrotation
							End Site
							{
								OFFSET 15.147485 0.000000 0.000000 
							}
						}
					}
				}
			}
			JOINT RightShoulder
			{
				OFFSET -4.040554 22.370487 -0.301823 
				CHANNELS 3 Zrotation Xrotation Yrotation
				JOINT RightArm
				{
					OFFSET -12.928750 0.000000 0.000000 
					CHANNELS 3 Zrotation Xrotation Yrotation
					JOINT RightForeArm
					{
						OFFSET -29.110218 0.000000 0.000000 
						CHANNELS 3 Zrotation Xrotation Yrotation
						JOINT RightHand
						{
							OFFSET -26.112843 0.000000 0.000000 
							CHANNELS 3 Zrotation Xrotation Yrotation
							End Site
							{
								OFFSET -15.147485 0.000000 0.000000 
							}
						}
					}
				}
			}
		}
	}
	JOINT LeftUpLeg
	{
		OFFSET 10.098323 0.000000 0.000000 
		CHANNELS 3 Zrotation Xrotation Yrotation
		JOINT LeftLeg
		{
			OFFSET -0.000000 -44.180832 0.000000 
			CHANNELS 3 Zrotation Xrotation Yrotation
			JOINT LeftFoot
			{
				OFFSET -0.000000 -40.401024 0.000000 
				CHANNELS 3 Zrotation Xrotation Yrotation
				JOINT LeftToeBase
				{
					OFFSET -0.000000 -6.563910 15.147485 
					CHANNELS 3 Zrotation Xrotation Yrotation
					End Site
					{
						OFFSET -0.000000 0.000000 4.039329 
					}
				}
			}
		}
	}
	JOINT RightUpLeg
	{
		OFFSET -10.098323 0.000000 0.000000 
		CHANNELS 3 Zrotation Xrotation Yrotation
		JOINT RightLeg
		{
			OFFSET -0.000000 -44.180832 0.000000 
			CHANNELS 3 Zrotation Xrotation Yrotation
			JOINT RightFoot
			{
				OFFSET -0.000000 -40.401024 0.000000 
				CHANNELS 3 Zrotation Xrotation Yrotation
				JOINT RightToeBase
				{
					OFFSET -0.000000 -6.563910 15.147485 
					CHANNELS 3 Zrotation Xrotation Yrotation
					End Site
					{
						OFFSET -0.000000 0.000000 4.039329 
					}
				}
			}
		}
	}
}
MOTION
Frames: 18
Frame Time: 0.008333
-55.780674 95.596382 -1.555701 10.975248 3.976984 131.547714 -7.793599 10.295881 -8.468628 11.923880 5.937625 -9.791871 2.341581 13.948769 17.058723 -6.103864 -0.519897 16.833843 0.536514 1.290365 -27.484863 -18.406271 43.166901 -70.146721 -17.671402 -16.678675 -46.281849 -3.162757 -24.115513 11.436973 2.207719 7.094913 10.116524 60.067230 6.485657 14.432588 40.021797 -29.284750 69.376366 -6.717770 -51.873455 11.999359 11.617184 -5.751676 -9.481036 -2.627440 22.894907 6.183599 -8.367779 5.871598 12.795587 0.000000 0.000000 0.000000 -14.400405 11.402941 -21.711716 -1.346405 18.724535 9.062580 16.369282 11.289248 -22.738400 0.000000 0.000000 0.000000 
-55.566467 95.490852 -1.095154 10.851603 3.783747 130.702591 -7.778596 10.258021 -8.525010 11.602365 5.865135 -9.820066 2.237299 14.139748 17.560555 -6.483367 -0.832781 17.292850 0.531393 1.314780 -27.533852 -18.872654 42.794594 -70.315018 -16.744081 -16.017754 -46.192333 -2.944946 -23.070286 11.155461 2.126525 7.044763 9.830642 59.971142 6.068688 14.046295 40.073685 -28.496433 70.543129 -6.042455 -51.756596 13.141052 11.976385 -5.764077 -8.928997 -2.535512 22.842497 6.293569 -8.468053 5.795799 12.859596 0.000000 0.000000 0.000000 -14.199060 11.185977 -21.077810 -1.306296 18.355551 9.371003 18.330458 9.829970 -23.899450 0.000000 0.000000 0.000000 
-56.354759 95.259964 -1.086478 9.989838 3.407645 129.432281 -5.283742 10.630491 -8.711944 8.610583 4.292776 -9.526748 2.179778 14.311063 18.069294 -6.901237 -1.144668 17.750179 0.294861 1.333620 -27.534451 -19.053789 42.586941 -70.542427 -15.785555 -15.374913 -46.063129 -2.652954 -22.013075 10.791437 2.337798 6.964755 9.562959 59.641331 5.658399 13.612145 40.184628 -27.806252 71.720840 -5.606780 -51.758278 13.977025 10.893764 -6.821574 -8.881506 -1.889466 23.379040 7.414806 -8.290972 5.478369 12.903646 0.000000 0.000000 0.000000 -15.479708 9.437760 -20.094120 -0.650694 19.010389 9.283692 19.316477 9.107579 -24.243200 0.000000 0.000000 0.000000 
-56.094212 95.188232 -0.617446 9.999646 3.320904 128.767227 -5.167387 10.722991 -8.820494 8.265314 4.280657 -9.614791 2.003162 14.496453 18.610790 -7.281807 -1.521623 18.243341 0.180633 1.393970 -27.555117 -19.514458 42.198555 -70.580231 -14.868700 -14.494901 -46.075325 -2.243032 -20.754839 10.512566 2.365143 6.913333 9.285832 59.477417 5.329863 13.292419 40.471817 -27.275963 73.099335 -5.407193 -52.082943 15.092464 11.269279 -6.701241 -9.069324 -2.028071 23.308289 7.920877 -8.384618 5.460994 13.168755 0.000000 0.000000 0.000000 -15.162635 9.502501 -19.253174 -0.471256 18.602493 8.821613 19.832842 8.336403 -24.373791 0.000000 0.000000 0.000000 
-54.916382 95.176003 0.358555 10.311572 3.425628 128.535919 -7.774154 10.096104 -8.728614 10.567801 5.785520 -9.951306 1.854212 14.569801 19.104124 -7.733335 -1.758794 18.679691 0.437568 1.562797 -27.607443 -20.119715 41.488583 -70.767998 -14.094049 -13.639466 -46.237537 -1.758992 -19.589857 10.336015 1.954213 6.932013 8.981002 59.688076 4.920726 13.129200 40.950851 -26.707893 74.559479 -5.376885 -52.554333 16.132385 12.719680 -5.906112 -8.757220 -2.617537 22.687241 7.477339 -8.753326 5.744417 13.455729 0.000000 0.000000 0.000000 -13.691577 10.686126 -18.667454 -0.852370 17.345858 8.364010 20.098862 6.749246 -24.418436 0.000000 0.000000 0.000000 
-54.697578 95.076874 0.861353 10.151354 3.326715 127.917328 -7.704762 10.049610 -8.803665 10.219436 5.808706 -10.001374 1.719450 14.671111 19.606634 -8.243988 -2.045435 19.111673 0.426956 1.812745 -27.623087 -19.962648 41.119682 -71.392967 -12.968803 -13.220672 -46.230400 -1.179983 -18.669004 10.109863 1.952050 6.959514 8.718789 59.521637 4.393224 12.894028 40.445629 -25.633413 75.404655 -4.919304 -51.835594 16.759363 12.926250 -5.953114 -8.544625 -2.448363 22.665905 7.494871 -8.873607 5.744734 13.708226 0.000000 0.000000 0.000000 -13.469646 10.586459 -18.204510 -0.701820 16.779959 7.667021 20.211119 6.199346 -24.014965 0.000000 0.000000 0.000000 
-55.318356 94.950783 0.835385 9.830479 3.110379 126.943848 -4.935920 10.750905 -9.051077 7.350954 4.466992 -9.802498 1.530458 14.772422 20.125765 -8.747183 -2.311495 19.562176 0.042131 1.926646 -27.586559 -19.613188 41.117786 -71.989731 -11.652718 -12.772762 -45.924374 -0.542910 -17.600592 9.743744 2.447257 6.982434 8.481399 58.881474 3.896124 12.605343 39.826881 -24.440731 76.263687 -5.249537 -51.022884 16.967855 12.088775 -6.329865 -8.877533 -1.691771 22.897482 8.283052 -8.659225 5.451622 13.944675 0.000000 0.000000 0.000000 -14.301630 9.613425 -17.734921 0.046552 16.878878 6.905997 20.335827 6.544633 -23.599188 0.000000 0.000000 0.000000 
-54.192234 94.940269 1.892312 10.066361 3.190868 126.697678 -7.553276 10.113282 -8.883180 9.708411 5.965502 -10.058988 1.334925 14.722164 20.608551 -9.290450 -2.421438 19.976904 0.376202 1.842549 -27.583605 -19.983061 40.957726 -72.519875 -10.167179 -12.045882 -45.840309 -0.262586 -16.247681 9.313629 2.026515 6.931086 8.242746 59.108494 3.242610 12.418302 40.078445 -23.508373 77.431061 -5.384861 -51.046616 17.742990 13.497282 -5.642990 -8.625458 -2.317060 22.306629 7.832327 -9.066764 5.858088 14.386241 0.000000 0.000000 0.000000 -12.840773 10.584362 -17.721102 -0.439546 15.667825 6.359033 19.907898 5.455892 -23.037685 0.000000 0.000000 0.000000 
-54.000664 94.847450 2.447475 9.827606 3.029368 126.253044 -7.424144 10.026302 -9.006082 9.458748 5.976851 -10.152576 1.050513 14.713087 21.110800 -9.790087 -2.631296 20.411697 0.432517 1.829264 -27.547451 -20.246857 40.932549 -72.778000 -8.656422 -11.442290 -45.969757 0.070707 -15.019201 8.874104 1.922825 6.783513 8.036011 59.127346 2.734171 12.086177 39.493965 -22.542706 78.403687 -4.966913 -50.389523 18.298540 13.739162 -5.779118 -8.949579 -2.338995 22.102644 8.235374 -9.072830 5.946352 14.613428 0.000000 0.000000 0.000000 -12.576715 10.274897 -17.896011 -0.318294 15.378010 5.966941 19.539883 4.953366 -22.473099 0.000000 0.000000 0.000000 
-53.774464 94.789734 3.001040 9.750746 2.909399 125.703461 -7.239651 10.038693 -9.061160 9.205170 6.049341 -10.184743 0.713030 14.725385 21.625677 -10.260204 -2.897564 20.859072 0.421369 1.887548 -27.490297 -20.409096 40.821312 -73.099098 -7.371666 -11.016830 -46.101891 0.578184 -14.041807 8.592810 2.015537 6.810908 7.813582 58.869160 2.160184 11.851812 39.629536 -21.588137 79.850525 -5.371873 -50.491474 18.826593 14.050146 -5.664322 -9.018654 -2.234707 21.835955 8.413391 -9.068003 6.113996 14.891432 0.000000 0.000000 0.000000 -12.252163 10.029017 -17.969851 -0.201195 15.226622 5.663840 19.013218 4.464275 -22.027294 0.000000 0.000000 0.000000 
-54.421734 94.663963 2.969341 9.237041 2.668958 124.857239 -4.478767 10.570983 -9.327556 6.412920 4.724082 -10.006530 0.388555 14.804559 22.126036 -10.770728 -3.200639 21.279604 0.143947 2.041821 -27.417202 -20.291210 40.759811 -73.398651 -6.123668 -10.615498 -46.147442 0.941219 -13.107004 8.045705 2.427965 6.886521 7.625227 58.197525 1.681543 11.737818 39.600803 -20.712111 80.927780 -5.521765 -50.385586 19.743645 13.139961 -6.192372 -9.349315 -1.434698 21.982204 9.148247 -8.651960 5.904338 15.114516 0.000000 0.000000 0.000000 -13.221000 8.634799 -18.068573 0.456193 15.985055 6.020513 18.713600 4.419587 -21.869743 0.000000 0.000000 0.000000 
-54.261841 94.613121 3.569163 9.013918 2.449271 124.135780 -4.339794 10.560105 -9.270912 6.234523 4.625090 -9.923811 0.087198 14.809894 22.623753 -11.315384 -3.364541 21.702404 0.149938 2.090379 -27.348867 -20.543329 40.612061 -73.635620 -4.946856 -10.070429 -46.249046 1.461784 -12.051838 7.494193 2.483990 6.951485 7.465140 57.953514 0.962644 11.599028 39.620354 -19.552046 82.007584 -5.805161 -50.146011 20.521307 13.487372 -6.212168 -9.096282 -1.272740 21.666109 9.295981 -8.655940 6.220687 15.441740 0.000000 0.000000 0.000000 -12.926927 7.942894 -18.042772 0.424949 16.142998 6.486835 18.222603 3.800304 -21.826479 0.000000 0.000000 0.000000 
-54.058136 94.582710 4.162007 8.859871 2.236424 123.561195 -4.113957 10.502743 -9.301056 6.011303 4.633086 -9.922377 -0.240947 14.932748 23.108011 -11.850026 -3.688678 22.095369 0.137677 2.154095 -27.297380 -20.792591 40.445324 -73.786674 -3.890598 -9.576093 -46.390522 2.061777 -11.098239 6.733418 2.596540 6.997653 7.352703 57.721600 0.055582 11.458572 39.411789 -18.379309 82.788750 -5.322324 -49.530804 21.615788 13.892527 -6.150179 -8.961822 -1.138061 21.274530 9.473836 -8.687869 6.529929 15.651629 0.000000 0.000000 0.000000 -12.562684 7.379943 -18.127705 0.371371 16.277819 6.787665 17.737270 3.386711 -21.589207 0.000000 0.000000 0.000000 
-53.823704 94.557755 4.711833 8.845412 2.155666 123.030533 -3.917773 10.566138 -9.349477 5.799235 4.699400 -9.949698 -0.662086 15.250998 23.525030 -12.279766 -4.336657 22.397511 0.097814 2.222967 -27.234003 -21.079369 40.225380 -73.859665 -3.037614 -9.112207 -46.663597 2.614525 -10.261502 6.363022 2.656160 7.025023 7.290954 57.469711 -0.568386 11.280352 38.950035 -17.397835 83.578720 -4.496280 -48.814842 22.811193 14.220172 -5.839121 -8.814443 -0.914391 20.842270 9.785050 -8.672276 6.815483 15.648371 0.000000 0.000000 0.000000 -12.266898 7.031439 -18.133612 0.314504 16.450195 6.999310 17.309053 3.057179 -21.195797 0.000000 0.000000 0.000000 
-53.630184 94.524384 5.281018 8.749063 2.061856 122.411186 -3.727167 10.624262 -9.352378 5.517318 4.700928 -9.925364 -0.955517 15.462841 24.005251 -12.768809 -4.757034 22.773930 0.127634 2.259791 -27.114687 -21.283077 39.983074 -74.012573 -2.311174 -8.676760 -46.981312 3.353637 -9.500333 5.846314 2.701369 7.038896 7.222847 57.282909 -1.137907 11.080663 38.809769 -16.288837 84.675323 -4.800194 -48.522030 23.512381 14.532674 -5.568628 -8.606899 -0.724731 20.340172 10.090060 -8.692492 7.162027 15.741108 0.000000 0.000000 0.000000 -12.039699 6.472829 -17.961496 0.202257 16.801126 7.439202 17.003920 2.631243 -20.933807 0.000000 0.000000 0.000000 
-53.462452 94.482719 5.874216 8.620398 1.900549 121.915138 -3.484887 10.694777 -9.405338 5.301271 4.617968 -9.945218 -1.284864 15.648266 24.448557 -13.211301 -5.110690 23.123646 0.148066 2.309280 -27.035355 -21.477669 39.670033 -74.122360 -1.784243 -8.387725 -47.372219 4.053419 -8.980733 5.184909 2.639276 7.070483 7.115638 57.240662 -1.468057 10.954122 38.295921 -15.363614 85.842255 -5.125761 -48.108593 24.007517 14.901334 -5.427943 -8.416281 -0.559660 19.859159 10.438154 -8.636463 7.518098 15.715199 0.000000 0.000000 0.000000 -11.774677 5.806726 -17.775705 0.123047 17.286234 7.811481 16.758722 2.179116 -20.658081 0.000000 0.000000 0.000000 
-53.280437 94.453964 6.434455 8.554781 1.834179 121.286194 -3.306280 10.798839 -9.392359 5.057077 4.602365 -9.907992 -1.544462 15.828866 24.851515 -13.646118 -5.382793 23.438187 0.149952 2.328719 -26.986141 -21.674692 39.290371 -74.142303 -1.418184 -8.000737 -47.794743 4.697412 -8.438194 4.559135 2.581898 7.202192 7.073164 57.130058 -1.925321 10.897356 37.954746 -14.425942 87.086319 -5.724508 -47.892506 24.306234 15.166797 -5.068949 -8.020240 -0.249713 19.289984 10.709066 -8.603243 7.947031 15.662699 0.000000 0.000000 0.000000 -11.625771 5.184395 -17.231964 0.141306 17.899925 8.504704 16.585348 1.550604 -20.785051 0.000000 0.000000 0.000000 
-53.109013 94.421211 6.995139 8.463651 1.749125 120.595840 -3.136654 10.852700 -9.371176 4.789171 4.611254 -9.861838 -1.765679 16.022631 25.287796 -14.041500 -5.641301 23.793697 0.196588 2.265374 -26.889856 -21.954557 38.870953 -74.099312 -1.203557 -7.489887 -48.149052 5.296308 -7.855653 3.661213 2.481114 7.388205 7.119177 57.020920 -2.708873 10.884215 37.901264 -13.128544 88.107613 -6.711821 -47.617435 24.662973 15.456837 -4.719766 -7.700267 -0.042708 18.710276 11.151091 -8.532184 8.394031 15.589454 0.000000 0.000000 0.000000 -11.469749 4.470417 -16.707747 0.125232 18.583235 9.137645 16.322863 1.019343 -20.906727 0.000000 0.000000 0.000000 
